<svg width="48" height="48" viewBox="0 0 48 48" fill="none" xmlns="http://www.w3.org/2000/svg">
<mask id="mask0_458_1705" style="mask-type:alpha" maskUnits="userSpaceOnUse" x="0" y="0" width="48" height="48">
<rect width="48" height="48" fill="#223F78"/>
</mask>
<g mask="url(#mask0_458_1705)">
<path d="M21.75 33.75H25.75V25.75H33.75V21.75H25.75V13.75H21.75V21.75H13.75V25.75H21.75V33.75ZM23.75 43.75C20.9833 43.75 18.3833 43.225 15.95 42.175C13.5167 41.125 11.4 39.7 9.6 37.9C7.8 36.1 6.375 33.9833 5.325 31.55C4.275 29.1167 3.75 26.5167 3.75 23.75C3.75 20.9833 4.275 18.3833 5.325 15.95C6.375 13.5167 7.8 11.4 9.6 9.6C11.4 7.8 13.5167 6.375 15.95 5.325C18.3833 4.275 20.9833 3.75 23.75 3.75C26.5167 3.75 29.1167 4.275 31.55 5.325C33.9833 6.375 36.1 7.8 37.9 9.6C39.7 11.4 41.125 13.5167 42.175 15.95C43.225 18.3833 43.75 20.9833 43.75 23.75C43.75 26.5167 43.225 29.1167 42.175 31.55C41.125 33.9833 39.7 36.1 37.9 37.9C36.1 39.7 33.9833 41.125 31.55 42.175C29.1167 43.225 26.5167 43.75 23.75 43.75ZM23.75 39.75C28.2167 39.75 32 38.2 35.1 35.1C38.2 32 39.75 28.2167 39.75 23.75C39.75 19.2833 38.2 15.5 35.1 12.4C32 9.3 28.2167 7.75 23.75 7.75C19.2833 7.75 15.5 9.3 12.4 12.4C9.3 15.5 7.75 19.2833 7.75 23.75C7.75 28.2167 9.3 32 12.4 35.1C15.5 38.2 19.2833 39.75 23.75 39.75Z" fill="#223F78"/>
</g>
</svg>
