<svg width="64" height="64" viewBox="0 0 64 64" fill="none" xmlns="http://www.w3.org/2000/svg">
<mask id="mask0_455_1626" style="mask-type:alpha" maskUnits="userSpaceOnUse" x="0" y="0" width="64" height="64">
<rect width="64" height="64" fill="#223F78"/>
</mask>
<g mask="url(#mask0_455_1626)">
<path d="M29 45H34.3333V34.3333H45V29H34.3333V18.3333H29V29H18.3333V34.3333H29V45ZM31.6667 58.3333C27.9778 58.3333 24.5111 57.6333 21.2667 56.2333C18.0222 54.8333 15.2 52.9333 12.8 50.5333C10.4 48.1333 8.5 45.3111 7.1 42.0667C5.7 38.8222 5 35.3556 5 31.6667C5 27.9778 5.7 24.5111 7.1 21.2667C8.5 18.0222 10.4 15.2 12.8 12.8C15.2 10.4 18.0222 8.5 21.2667 7.1C24.5111 5.7 27.9778 5 31.6667 5C35.3556 5 38.8222 5.7 42.0667 7.1C45.3111 8.5 48.1333 10.4 50.5333 12.8C52.9333 15.2 54.8333 18.0222 56.2333 21.2667C57.6333 24.5111 58.3333 27.9778 58.3333 31.6667C58.3333 35.3556 57.6333 38.8222 56.2333 42.0667C54.8333 45.3111 52.9333 48.1333 50.5333 50.5333C48.1333 52.9333 45.3111 54.8333 42.0667 56.2333C38.8222 57.6333 35.3556 58.3333 31.6667 58.3333ZM31.6667 53C37.6222 53 42.6667 50.9333 46.8 46.8C50.9333 42.6667 53 37.6222 53 31.6667C53 25.7111 50.9333 20.6667 46.8 16.5333C42.6667 12.4 37.6222 10.3333 31.6667 10.3333C25.7111 10.3333 20.6667 12.4 16.5333 16.5333C12.4 20.6667 10.3333 25.7111 10.3333 31.6667C10.3333 37.6222 12.4 42.6667 16.5333 46.8C20.6667 50.9333 25.7111 53 31.6667 53Z" fill="#223F78"/>
</g>
</svg>
