<svg width="36" height="37" viewBox="0 0 36 37" fill="none" xmlns="http://www.w3.org/2000/svg">
<path d="M24 35L22.5 26L25.8 25.5L27.25 35H24ZM13 35.5L9.5 35L11 25.5L14.5 26L13 35.5ZM10.2 10L10.8 12H25.2L25.8 10H10.2ZM10.8 16C9.93333 16 9.15 15.742 8.45 15.226C7.75 14.71 7.26667 14.0347 7 13.2L6 10H4C2.9 10 1.95867 9.60867 1.176 8.826C0.393333 8.04333 0.00133333 7.10133 0 6V0H36V6C36 7.1 35.6087 8.042 34.826 8.826C34.0433 9.61 33.1013 10.0013 32 10H30L28.7 13.4C28.4 14.1667 27.9167 14.792 27.25 15.276C26.5833 15.76 25.8333 16.0013 25 16H10.8Z" fill="#B71111"/>
</svg>
