<svg width="64" height="64" viewBox="0 0 64 64" fill="none" xmlns="http://www.w3.org/2000/svg">
<g id="checker-course" clip-path="url(#clip0_361_922)">
<path id="Vector" fill-rule="evenodd" clip-rule="evenodd" d="M14.8467 13.4284C14.2644 15.7869 12.1381 18.6161 10.0343 19.8281C8.08104 20.9571 6.65585 22.8154 6.07193 24.9946C5.488 27.1739 5.79312 29.4958 6.92024 31.4502C8.12115 33.5211 8.56797 36.6755 7.99483 38.9999C7.48982 41.0578 7.74541 43.3061 8.88892 45.2822C9.94238 47.1112 11.64 48.4815 13.6501 49.1254C16.0619 49.9042 18.8831 52.1841 20.1503 54.3788C21.2794 56.3311 23.1372 57.7556 25.3156 58.3393C27.4941 58.923 29.8152 58.6183 31.7692 57.4921C33.9639 56.225 37.5472 55.6612 40.0252 56.1927C42.0879 56.64 44.2433 56.3021 46.0701 55.2449C47.9732 54.1479 49.3764 52.3552 49.9841 50.2443C50.6483 47.9509 52.592 45.457 54.6645 44.2631C56.6235 43.1361 58.0546 41.2772 58.643 39.0951C59.2315 36.913 58.929 34.5865 57.8021 32.6275C56.5884 30.5299 56.1594 27.0126 56.8366 24.6829C57.1563 23.5829 57.2498 22.4296 57.1115 21.2925C56.9732 20.1554 56.606 19.0581 56.032 18.0668C55.4382 17.0352 54.6339 16.1402 53.6714 15.4399C52.7089 14.7397 51.6098 14.2499 50.4455 14.0024C48.2088 13.5224 45.7104 11.7067 44.5685 9.72437C43.4395 7.77107 41.5813 6.34588 39.402 5.76195C37.2228 5.17803 34.9009 5.48315 32.9465 6.61026C30.9704 7.75377 27.895 8.07928 25.7178 7.37666C24.5862 7.00942 23.39 6.8844 22.2069 7.00973C21.0238 7.13506 19.8803 7.50793 18.8508 8.10412C17.8585 8.67532 16.9921 9.44154 16.304 10.3566C15.6158 11.2717 15.1201 12.3166 14.8467 13.4284ZM44.5406 24.1213C44.8428 24.4134 45.0846 24.7623 45.252 25.1478C45.4194 25.5334 45.5092 25.9482 45.5162 26.3685C45.5233 26.7888 45.4475 27.2064 45.2931 27.5973C45.1387 27.9883 44.9088 28.3451 44.6166 28.6472L31.9346 41.7538C31.6006 42.1139 31.1882 42.3922 30.7294 42.5672C30.0627 42.8217 29.33 42.8459 28.6479 42.6361C27.9658 42.4263 27.3733 41.9946 26.9648 41.4094L20.2647 32.3026C20.0157 31.964 19.8358 31.5796 19.7353 31.1714C19.6348 30.7633 19.6157 30.3393 19.679 29.9238C19.7424 29.5082 19.887 29.1092 20.1045 28.7495C20.3221 28.3899 20.6084 28.0766 20.947 27.8275C21.2856 27.5785 21.67 27.3986 22.0782 27.2981C22.4863 27.1976 22.9103 27.1785 23.3259 27.2418C23.7414 27.3052 24.1404 27.4498 24.5001 27.6673C24.8598 27.8849 25.1731 28.1712 25.4221 28.5098L29.9214 34.6284L40.0155 24.1942C40.3078 23.8923 40.6568 23.6509 41.0424 23.4838C41.428 23.3168 41.8427 23.2273 42.2629 23.2205C42.6831 23.2138 43.1005 23.2898 43.4913 23.4444C43.8821 23.5989 44.2387 23.829 44.5406 24.1213Z" fill="url(#paint0_linear_361_922)"/>
</g>
<defs>
<linearGradient id="paint0_linear_361_922" x1="39.4001" y1="5.76144" x2="25.3122" y2="58.3384" gradientUnits="userSpaceOnUse">
<stop stop-color="#355DAA"/>
<stop offset="1" stop-color="#6E90FF"/>
</linearGradient>
<clipPath id="clip0_361_922">
<rect width="64" height="64" fill="white"/>
</clipPath>
</defs>
</svg>
