<svg width="48" height="48" viewBox="0 0 48 48" fill="none" xmlns="http://www.w3.org/2000/svg">
<g id="checker" clip-path="url(#clip0_260_175)">
<path id="Vector" fill-rule="evenodd" clip-rule="evenodd" d="M10.9872 9.94099C10.5594 11.6741 8.99676 13.7533 7.45072 14.6439C6.01525 15.4736 4.9679 16.8391 4.53879 18.4406C4.10969 20.042 4.33394 21.7483 5.16226 23.1846C6.04482 24.7065 6.37322 27.0245 5.95203 28.7327C5.58092 30.2449 5.76877 31.8971 6.60915 33.3493C7.38335 34.6934 8.63095 35.7004 10.1081 36.1736C11.8806 36.7459 13.9539 38.4214 14.8851 40.0342C15.7149 41.4689 17.0802 42.5157 18.6812 42.9447C20.2821 43.3737 21.9879 43.1498 23.4239 42.3222C25.0368 41.391 27.6701 40.9767 29.4912 41.3673C31.0071 41.6961 32.5911 41.4477 33.9336 40.6709C35.3321 39.8647 36.3633 38.5473 36.8099 36.9961C37.298 35.3108 38.7264 33.4781 40.2494 32.6007C41.6891 31.7726 42.7408 30.4065 43.1732 28.803C43.6056 27.1994 43.3833 25.4898 42.5552 24.0501C41.6632 22.5087 41.3479 19.9239 41.8456 18.2119C42.0805 17.4036 42.1492 16.556 42.0476 15.7204C41.9459 14.8848 41.676 14.0784 41.2542 13.3499C40.8178 12.5918 40.2267 11.9341 39.5194 11.4195C38.8121 10.9049 38.0043 10.545 37.1487 10.3631C35.5049 10.0103 33.6688 8.67597 32.8297 7.21924C32 5.78381 30.6343 4.73647 29.0328 4.30734C27.4313 3.87822 25.7249 4.10242 24.2887 4.93069C22.8365 5.771 20.5763 6.01018 18.9764 5.49383C18.1447 5.22395 17.2656 5.13206 16.3962 5.22416C15.5267 5.31625 14.6864 5.59025 13.9298 6.02836C13.2006 6.44811 12.5639 7.01118 12.0582 7.68362C11.5525 8.35606 11.1882 9.12395 10.9872 9.94099ZM32.8093 17.7991C33.0314 18.0138 33.209 18.2701 33.3321 18.5535C33.4551 18.8368 33.5211 19.1416 33.5263 19.4505C33.5315 19.7594 33.4757 20.0662 33.3623 20.3535C33.2489 20.6409 33.0799 20.903 32.8651 21.125L23.5453 30.7566C23.2999 31.0212 22.9968 31.2257 22.6596 31.3543C22.1696 31.5413 21.6312 31.5591 21.1299 31.4049C20.6286 31.2508 20.1933 30.9335 19.893 30.5035L14.9691 23.8111C14.7861 23.5622 14.6538 23.2798 14.58 22.9798C14.5061 22.6799 14.4921 22.3683 14.5386 22.0629C14.5852 21.7576 14.6915 21.4644 14.8513 21.2C15.0112 20.9357 15.2216 20.7055 15.4705 20.5225C15.7193 20.3395 16.0018 20.2073 16.3017 20.1334C16.6017 20.0596 16.9133 20.0456 17.2187 20.0921C17.524 20.1387 17.8173 20.2449 18.0816 20.4048C18.3459 20.5647 18.5762 20.7751 18.7592 21.0239L22.0658 25.5203L29.4838 17.8526C29.6986 17.6308 29.9551 17.4534 30.2384 17.3306C30.5218 17.2079 30.8266 17.1421 31.1354 17.1371C31.4442 17.1322 31.751 17.1881 32.0382 17.3016C32.3254 17.4152 32.5874 17.5843 32.8093 17.7991Z" fill="#848CA9"/>
</g>
<defs>
<clipPath id="clip0_260_175">
<rect width="48" height="48" fill="white"/>
</clipPath>
</defs>
</svg>
