<svg width="37" height="36" viewBox="0 0 37 36" fill="none" xmlns="http://www.w3.org/2000/svg">
<g id="clock-icon">
<path id="Vector" d="M18.5 30C21.6826 30 24.7348 28.7357 26.9853 26.4853C29.2357 24.2348 30.5 21.1826 30.5 18C30.5 14.8174 29.2357 11.7652 26.9853 9.51472C24.7348 7.26428 21.6826 6 18.5 6C15.3174 6 12.2652 7.26428 10.0147 9.51472C7.76428 11.7652 6.5 14.8174 6.5 18C6.5 21.1826 7.76428 24.2348 10.0147 26.4853C12.2652 28.7357 15.3174 30 18.5 30ZM18.5 3C20.4698 3 22.4204 3.38799 24.2402 4.14181C26.0601 4.89563 27.7137 6.00052 29.1066 7.3934C30.4995 8.78628 31.6044 10.4399 32.3582 12.2597C33.112 14.0796 33.5 16.0302 33.5 18C33.5 21.9782 31.9196 25.7936 29.1066 28.6066C26.2936 31.4196 22.4782 33 18.5 33C10.205 33 3.5 26.25 3.5 18C3.5 14.0218 5.08035 10.2064 7.8934 7.3934C10.7064 4.58035 14.5218 3 18.5 3ZM19.25 10.5V18.375L26 22.38L24.875 24.225L17 19.5V10.5H19.25Z" fill="#5080E2"/>
</g>
</svg>
