<svg width="32" height="32" viewBox="0 0 32 32" fill="none" xmlns="http://www.w3.org/2000/svg">
<mask id="mask0_455_1600" style="mask-type:alpha" maskUnits="userSpaceOnUse" x="0" y="0" width="32" height="32">
<rect width="32" height="32" fill="#AA3535"/>
</mask>
<g mask="url(#mask0_455_1600)">
<path d="M9.33398 28C8.60065 28 7.97287 27.7389 7.45065 27.2167C6.92843 26.6944 6.66732 26.0667 6.66732 25.3333V8H5.33398V5.33333H12.0007V4H20.0007V5.33333H26.6673V8H25.334V25.3333C25.334 26.0667 25.0729 26.6944 24.5507 27.2167C24.0284 27.7389 23.4007 28 22.6673 28H9.33398ZM22.6673 8H9.33398V25.3333H22.6673V8ZM12.0007 22.6667H14.6673V10.6667H12.0007V22.6667ZM17.334 22.6667H20.0007V10.6667H17.334V22.6667Z" fill="#AA3535"/>
</g>
</svg>
