<svg width="25" height="25" viewBox="0 0 25 25" fill="none" xmlns="http://www.w3.org/2000/svg">
<mask id="mask0_193_83" style="mask-type:alpha" maskUnits="userSpaceOnUse" x="0" y="0" width="25" height="25">
<rect x="0.5" y="0.5" width="24" height="24" fill="#D9D9D9"/>
</mask>
<g mask="url(#mask0_193_83)">
<path d="M12.5 22.5C11.1167 22.5 9.81667 22.2375 8.6 21.7125C7.38333 21.1875 6.325 20.475 5.425 19.575C4.525 18.675 3.8125 17.6167 3.2875 16.4C2.7625 15.1833 2.5 13.8833 2.5 12.5C2.5 11.1167 2.7625 9.81667 3.2875 8.6C3.8125 7.38333 4.525 6.325 5.425 5.425C6.325 4.525 7.38333 3.8125 8.6 3.2875C9.81667 2.7625 11.1167 2.5 12.5 2.5C13.8833 2.5 15.1833 2.7625 16.4 3.2875C17.6167 3.8125 18.675 4.525 19.575 5.425C20.475 6.325 21.1875 7.38333 21.7125 8.6C22.2375 9.81667 22.5 11.1167 22.5 12.5V13.95C22.5 14.9333 22.1625 15.7708 21.4875 16.4625C20.8125 17.1542 19.9833 17.5 19 17.5C18.4167 17.5 17.8667 17.375 17.35 17.125C16.8333 16.875 16.4 16.5167 16.05 16.05C15.5667 16.5333 15.0208 16.8958 14.4125 17.1375C13.8042 17.3792 13.1667 17.5 12.5 17.5C11.1167 17.5 9.9375 17.0125 8.9625 16.0375C7.9875 15.0625 7.5 13.8833 7.5 12.5C7.5 11.1167 7.9875 9.9375 8.9625 8.9625C9.9375 7.9875 11.1167 7.5 12.5 7.5C13.8833 7.5 15.0625 7.9875 16.0375 8.9625C17.0125 9.9375 17.5 11.1167 17.5 12.5V13.95C17.5 14.3833 17.6417 14.75 17.925 15.05C18.2083 15.35 18.5667 15.5 19 15.5C19.4333 15.5 19.7917 15.35 20.075 15.05C20.3583 14.75 20.5 14.3833 20.5 13.95V12.5C20.5 10.2667 19.725 8.375 18.175 6.825C16.625 5.275 14.7333 4.5 12.5 4.5C10.2667 4.5 8.375 5.275 6.825 6.825C5.275 8.375 4.5 10.2667 4.5 12.5C4.5 14.7333 5.275 16.625 6.825 18.175C8.375 19.725 10.2667 20.5 12.5 20.5H17.5V22.5H12.5ZM12.5 15.5C13.3333 15.5 14.0417 15.2083 14.625 14.625C15.2083 14.0417 15.5 13.3333 15.5 12.5C15.5 11.6667 15.2083 10.9583 14.625 10.375C14.0417 9.79167 13.3333 9.5 12.5 9.5C11.6667 9.5 10.9583 9.79167 10.375 10.375C9.79167 10.9583 9.5 11.6667 9.5 12.5C9.5 13.3333 9.79167 14.0417 10.375 14.625C10.9583 15.2083 11.6667 15.5 12.5 15.5Z" fill="#355DAA"/>
</g>
</svg>
