<svg width="25" height="25" viewBox="0 0 25 25" fill="none" xmlns="http://www.w3.org/2000/svg">
<mask id="mask0_193_480" style="mask-type:alpha" maskUnits="userSpaceOnUse" x="0" y="0" width="25" height="25">
<rect x="0.5" y="0.5" width="24" height="24" fill="#355DAA"/>
</mask>
<g mask="url(#mask0_193_480)">
<path d="M16.6 13.7998L15.15 12.3498C15.3 11.5665 15.075 10.8331 14.475 10.1498C13.875 9.46647 13.1 9.19981 12.15 9.34981L10.7 7.89981C10.9833 7.76647 11.2708 7.66647 11.5625 7.5998C11.8542 7.53314 12.1667 7.4998 12.5 7.4998C13.75 7.4998 14.8125 7.9373 15.6875 8.8123C16.5625 9.6873 17 10.7498 17 11.9998C17 12.3331 16.9667 12.6456 16.9 12.9373C16.8333 13.229 16.7333 13.5165 16.6 13.7998ZM19.8 16.9498L18.35 15.5498C18.9833 15.0665 19.5458 14.5373 20.0375 13.9623C20.5292 13.3873 20.95 12.7331 21.3 11.9998C20.4667 10.3165 19.2708 8.97897 17.7125 7.98731C16.1542 6.99564 14.4167 6.4998 12.5 6.4998C12.0167 6.4998 11.5417 6.53314 11.075 6.5998C10.6083 6.66647 10.15 6.76647 9.7 6.89981L8.15 5.3498C8.83333 5.06647 9.53333 4.85397 10.25 4.7123C10.9667 4.57064 11.7167 4.4998 12.5 4.4998C15.0167 4.4998 17.2583 5.19564 19.225 6.58731C21.1917 7.97897 22.6167 9.78314 23.5 11.9998C23.1167 12.9831 22.6125 13.8956 21.9875 14.7373C21.3625 15.579 20.6333 16.3165 19.8 16.9498ZM20.3 23.0998L16.1 18.9498C15.5167 19.1331 14.9292 19.2706 14.3375 19.3623C13.7458 19.454 13.1333 19.4998 12.5 19.4998C9.98333 19.4998 7.74167 18.804 5.775 17.4123C3.80833 16.0206 2.38333 14.2165 1.5 11.9998C1.85 11.1165 2.29167 10.2956 2.825 9.53731C3.35833 8.77897 3.96667 8.0998 4.65 7.4998L1.9 4.6998L3.3 3.2998L21.7 21.6998L20.3 23.0998ZM6.05 8.89981C5.56667 9.33314 5.125 9.80814 4.725 10.3248C4.325 10.8415 3.98333 11.3998 3.7 11.9998C4.53333 13.6831 5.72917 15.0206 7.2875 16.0123C8.84583 17.004 10.5833 17.4998 12.5 17.4998C12.8333 17.4998 13.1583 17.479 13.475 17.4373C13.7917 17.3956 14.1167 17.3498 14.45 17.2998L13.55 16.3498C13.3667 16.3998 13.1917 16.4373 13.025 16.4623C12.8583 16.4873 12.6833 16.4998 12.5 16.4998C11.25 16.4998 10.1875 16.0623 9.3125 15.1873C8.4375 14.3123 8 13.2498 8 11.9998C8 11.8165 8.0125 11.6415 8.0375 11.4748C8.0625 11.3081 8.1 11.1331 8.15 10.9498L6.05 8.89981Z" fill="#355DAA"/>
</g>
</svg>
