<svg width="25" height="25" viewBox="0 0 25 25" fill="none" xmlns="http://www.w3.org/2000/svg">
<mask id="mask0_193_476" style="mask-type:alpha" maskUnits="userSpaceOnUse" x="0" y="0" width="25" height="25">
<rect x="0.5" y="0.5" width="24" height="24" fill="#355DAA"/>
</mask>
<g mask="url(#mask0_193_476)">
<path d="M7.5 14.5C6.95 14.5 6.47917 14.3042 6.0875 13.9125C5.69583 13.5208 5.5 13.05 5.5 12.5C5.5 11.95 5.69583 11.4792 6.0875 11.0875C6.47917 10.6958 6.95 10.5 7.5 10.5C8.05 10.5 8.52083 10.6958 8.9125 11.0875C9.30417 11.4792 9.5 11.95 9.5 12.5C9.5 13.05 9.30417 13.5208 8.9125 13.9125C8.52083 14.3042 8.05 14.5 7.5 14.5ZM7.5 18.5C5.83333 18.5 4.41667 17.9167 3.25 16.75C2.08333 15.5833 1.5 14.1667 1.5 12.5C1.5 10.8333 2.08333 9.41667 3.25 8.25C4.41667 7.08333 5.83333 6.5 7.5 6.5C8.61667 6.5 9.62917 6.775 10.5375 7.325C11.4458 7.875 12.1667 8.6 12.7 9.5H21.5L24.5 12.5L20 17L18 15.5L16 17L13.875 15.5H12.7C12.1667 16.4 11.4458 17.125 10.5375 17.675C9.62917 18.225 8.61667 18.5 7.5 18.5ZM7.5 16.5C8.43333 16.5 9.25417 16.2167 9.9625 15.65C10.6708 15.0833 11.1417 14.3667 11.375 13.5H14.5L15.95 14.525L18 13L19.775 14.375L21.65 12.5L20.65 11.5H11.375C11.1417 10.6333 10.6708 9.91667 9.9625 9.35C9.25417 8.78333 8.43333 8.5 7.5 8.5C6.4 8.5 5.45833 8.89167 4.675 9.675C3.89167 10.4583 3.5 11.4 3.5 12.5C3.5 13.6 3.89167 14.5417 4.675 15.325C5.45833 16.1083 6.4 16.5 7.5 16.5Z" fill="#355DAA"/>
</g>
</svg>
