<svg width="32" height="32" viewBox="0 0 32 32" fill="none" xmlns="http://www.w3.org/2000/svg">
<g id="si:lock-fill">
<path id="Vector" fill-rule="evenodd" clip-rule="evenodd" d="M9.33366 9.33329C9.33366 5.65063 12.3177 2.66663 16.0003 2.66663C19.683 2.66663 22.667 5.65063 22.667 9.33329V13.3333H23.2003C24.3737 13.3333 25.3337 14.2933 25.3337 15.4666V24.8C25.3337 26.56 23.8937 28 22.1337 28H9.86699C8.10699 28 6.66699 26.56 6.66699 24.8V15.4666C6.66699 14.2933 7.62699 13.3333 8.80033 13.3333H9.33366V9.33329ZM20.0003 9.33329V13.3333H12.0003V9.33329C12.0003 7.12263 13.7897 5.33329 16.0003 5.33329C18.211 5.33329 20.0003 7.12263 20.0003 9.33329ZM16.0003 16.3333C15.4701 16.3327 14.9555 16.5128 14.5413 16.8438C14.1271 17.1748 13.838 17.637 13.7215 18.1542C13.6051 18.6715 13.6683 19.213 13.9007 19.6896C14.1332 20.1661 14.521 20.5493 15.0003 20.776V24C15.0003 24.2652 15.1057 24.5195 15.2932 24.7071C15.4808 24.8946 15.7351 25 16.0003 25C16.2655 25 16.5199 24.8946 16.7074 24.7071C16.895 24.5195 17.0003 24.2652 17.0003 24V20.776C17.4796 20.5493 17.8675 20.1661 18.0999 19.6896C18.3324 19.213 18.3956 18.6715 18.2791 18.1542C18.1627 17.637 17.8736 17.1748 17.4593 16.8438C17.0451 16.5128 16.5305 16.3327 16.0003 16.3333Z" fill="#848CA9"/>
</g>
</svg>
