<svg width="112" height="33" viewBox="0 0 112 33" fill="none" xmlns="http://www.w3.org/2000/svg">
<path d="M13.5734 31.2076V23.0367H16.8418V31.2076H13.5734ZM26.7694 27.0813L20.9681 21.3208L23.2968 18.9921L29.0573 24.7934L26.7694 27.0813ZM3.6458 27.0813L1.35794 24.7934L7.11843 18.9921L9.44713 21.3208L3.6458 27.0813ZM8.83432 9.96326L9.32457 11.5974H21.0907L21.5809 9.96326H8.83432ZM9.32457 14.8658C8.61642 14.8658 7.97637 14.655 7.40441 14.2334C6.83245 13.8117 6.43752 13.2599 6.21963 12.5779L5.40254 9.96326H3.76836C2.86956 9.96326 2.10041 9.6435 1.4609 9.00399C0.821389 8.36448 0.501089 7.59479 0.5 6.6949V1.79236H29.9152V6.6949C29.9152 7.5937 29.5955 8.36339 28.956 9.00399C28.3165 9.64459 27.5468 9.96435 26.6469 9.96326H25.0127L23.9505 12.7414C23.7054 13.3678 23.3104 13.8787 22.7657 14.2742C22.221 14.6697 21.6082 14.8669 20.9272 14.8658H9.32457Z" fill="#B71111"/>
<path d="M51.5182 32.2162C49.348 32.2162 47.204 29.6832 45.1645 29.108C43.1512 28.5066 41.5301 27.7353 40.3012 26.794L42.4583 22.0092C43.6349 22.872 45.0338 23.5649 46.6549 24.0878C48.276 24.6108 49.8971 24.8722 51.5182 24.8722C53.3224 24.8722 54.6559 24.6108 55.5187 24.0878C56.3815 23.5387 56.813 22.8197 56.813 21.9307C56.813 21.277 56.5515 20.741 56.0286 20.3227C55.5318 19.8782 54.8781 19.5252 54.0675 19.2637C53.2831 19.0023 52.2111 18.7146 50.8515 18.4009C48.7597 17.9041 47.0471 17.4073 45.7136 16.9105C44.3801 16.4137 43.2297 15.6162 42.2622 14.5181C41.3209 13.4199 39.4841 11.6419 39.4841 9.81163C39.4841 8.21667 41.2817 7.09236 42.1446 5.81116C43.0074 4.50382 44.3017 3.47102 46.0274 2.71276C47.7792 1.9545 49.9102 1.57537 52.4203 1.57537C54.1721 1.57537 55.8848 1.78454 57.5582 2.20289C59.2316 2.62124 63.5883 3.20955 63.9968 5.25227L59.9898 8.83112C57.4536 7.39305 54.9173 6.67401 52.3811 6.67401C50.6031 6.67401 49.2827 6.96162 48.4198 7.53685C47.5831 8.11208 47.1648 8.87034 47.1648 9.81163C47.1648 10.7529 47.6485 11.4589 48.6159 11.9295C49.6095 12.374 51.113 12.8185 53.1263 13.263C55.218 13.7598 56.9306 14.2566 58.2641 14.7534C59.5976 15.2502 60.735 16.0346 61.6763 17.1066C62.6437 18.1786 63.1274 19.6298 63.1274 21.4601C63.1274 23.0289 64.0164 24.7807 63.1274 26.0881C62.2646 27.3693 59.6238 28.0752 57.8719 28.8335C56.1201 29.5917 54.0283 32.2162 51.5182 32.2162Z" fill="#0E1E3E"/>
<path d="M80.2548 8.21341C78.0584 8.21341 76.3981 8.69712 75.2738 9.66456C74.1495 10.6058 73.5873 12.0308 73.5873 13.9396V15.626H86.8753L83.607 20.3227L73.5873 20.7247V29.3564L67.2336 30.7259V13.9788C67.2336 10.449 68.3318 7.70354 70.5281 5.74253C72.7506 3.78151 80.2809 1.57537 84.2552 1.57537C85.8241 1.57537 82.8695 2.97096 84.2552 3.31087C85.641 3.62463 85.8556 5.115 86.8753 5.74253L85.9025 9.743C84.3337 8.72327 82.4511 8.21341 80.2548 8.21341Z" fill="#0E1E3E"/>
<path d="M91.1438 2.20289L90.5522 0.783813L96.6804 4.51689L97.4975 10.5634V24.3231L110.162 24.8624L111.264 29.5002H91.1438V9.66456V2.20289Z" fill="#0E1E3E"/>
</svg>
