<svg width="140" height="41" viewBox="0 0 140 41" fill="none" xmlns="http://www.w3.org/2000/svg">
<path d="M16.4801 39.0402V28.7402H20.6002V39.0402H16.4801ZM33.1147 33.8387L25.8017 26.5771L28.7372 23.6416L35.9988 30.9547L33.1147 33.8387ZM3.96553 33.8387L1.08151 30.9547L8.34306 23.6416L11.2786 26.5771L3.96553 33.8387ZM10.5061 12.26L11.1241 14.3201H25.9562L26.5742 12.26H10.5061ZM11.1241 18.4401C10.2314 18.4401 9.42457 18.1743 8.70357 17.6429C7.98256 17.1114 7.48472 16.4158 7.21005 15.5561L6.18005 12.26H4.12003C2.98702 12.26 2.01744 11.857 1.21129 11.0508C0.405136 10.2447 0.00137334 9.27439 0 8.14001V1.95996H37.0803V8.14001C37.0803 9.27302 36.6772 10.2433 35.871 11.0508C35.0649 11.8583 34.0946 12.2614 32.9602 12.26H30.9002L29.5612 15.7621C29.2522 16.5517 28.7544 17.1958 28.0677 17.6944C27.381 18.1929 26.6085 18.4415 25.7502 18.4401H11.1241Z" fill="#B71111"/>
<path d="M64.6104 40.3116C61.8747 40.3116 59.1719 37.1185 56.601 36.3934C54.0631 35.6353 52.0196 34.663 50.4704 33.4764L53.1897 27.4447C54.6729 28.5324 56.4362 29.4059 58.4798 30.0651C60.5233 30.7243 62.5668 31.0539 64.6104 31.0539C66.8846 31.0539 68.5656 30.7243 69.6533 30.0651C70.741 29.3729 71.2848 28.4665 71.2848 27.3459C71.2848 26.5218 70.9552 25.8462 70.296 25.3188C69.6698 24.7585 68.8458 24.3135 67.824 23.9839C66.8352 23.6543 65.4838 23.2917 63.7699 22.8962C61.1331 22.27 58.9742 21.6437 57.2932 21.0175C55.6122 20.3912 54.162 19.386 52.9425 18.0016C51.7559 16.6173 49.4404 14.376 49.4404 12.0688C49.4404 10.0582 51.7064 8.64091 52.7941 7.02585C53.8818 5.37784 55.5134 4.07591 57.6887 3.12007C59.8971 2.16422 62.5833 1.6863 65.7475 1.6863C67.9558 1.6863 70.1147 1.94998 72.2242 2.47734C74.3337 3.00471 79.8257 3.74631 80.3407 6.32133L75.2895 10.8328C72.0924 9.01995 68.8952 8.11354 65.6981 8.11354C63.4568 8.11354 61.7923 8.4761 60.7046 9.20123C59.6499 9.92635 59.1225 10.8822 59.1225 12.0688C59.1225 13.2553 59.7323 14.1453 60.9518 14.7386C62.2043 15.2989 64.0995 15.8592 66.6374 16.4195C69.2743 17.0458 71.4332 17.672 73.1141 18.2983C74.7951 18.9245 76.2289 19.9133 77.4154 21.2647C78.635 22.6161 79.2447 24.4454 79.2447 26.7526C79.2447 28.7302 80.3654 30.9385 79.2447 32.5865C78.157 34.2016 74.8281 35.0915 72.6197 36.0473C70.4114 37.0032 67.7746 40.3116 64.6104 40.3116Z" fill="#0E1E3E"/>
<path d="M100.835 10.0541C98.0665 10.0541 95.9735 10.6638 94.5562 11.8834C93.1389 13.0699 92.4303 14.8663 92.4303 17.2724V19.3983H109.181L105.061 25.3188L92.4303 25.8256V36.7066L84.4209 38.4328V17.3218C84.4209 12.8722 85.8052 9.41135 88.5739 6.93933C91.3755 4.46732 100.868 1.6863 105.878 1.6863C107.856 1.6863 104.131 3.44555 105.878 3.87403C107.625 4.26956 107.895 6.14829 109.181 6.93933L107.955 11.9823C105.977 10.6968 103.604 10.0541 100.835 10.0541Z" fill="#0E1E3E"/>
<path d="M114.562 2.47734L113.816 0.688477L121.541 5.39432L122.571 13.0164V30.3617L138.536 31.0415L139.925 36.8878H114.562V11.8834V2.47734Z" fill="#0E1E3E"/>
</svg>
