<svg width="91" height="41" viewBox="0 0 91 41" fill="none" xmlns="http://www.w3.org/2000/svg">
<g id="SFL">
<path d="M15.6104 40.3116C12.8747 40.3116 10.1719 37.1185 7.60104 36.3934C5.0631 35.6353 3.01957 34.663 1.47044 33.4764L4.18966 27.4447C5.67287 28.5324 7.43624 29.4059 9.47978 30.0651C11.5233 30.7243 13.5668 31.0539 15.6104 31.0539C17.8846 31.0539 19.5656 30.7243 20.6533 30.0651C21.741 29.3729 22.2848 28.4665 22.2848 27.3459C22.2848 26.5218 21.9552 25.8462 21.296 25.3188C20.6698 24.7585 19.8458 24.3135 18.824 23.9839C17.8352 23.6543 16.4838 23.2917 14.7699 22.8962C12.1331 22.27 9.97418 21.6437 8.29321 21.0175C6.61224 20.3912 5.16199 19.386 3.94246 18.0016C2.75589 16.6173 0.44043 14.376 0.44043 12.0688C0.44043 10.0582 2.70645 8.64091 3.79413 7.02585C4.88182 5.37784 6.51336 4.07591 8.68873 3.12007C10.8971 2.16422 13.5833 1.6863 16.7475 1.6863C18.9558 1.6863 21.1147 1.94998 23.2242 2.47734C25.3337 3.00471 30.8257 3.74631 31.3407 6.32133L26.2895 10.8328C23.0924 9.01995 19.8952 8.11354 16.6981 8.11354C14.4568 8.11354 12.7923 8.4761 11.7046 9.20123C10.6499 9.92635 10.1225 10.8822 10.1225 12.0688C10.1225 13.2553 10.7323 14.1453 11.9518 14.7386C13.2043 15.2989 15.0995 15.8592 17.6374 16.4195C20.2743 17.0458 22.4332 17.672 24.1141 18.2983C25.7951 18.9245 27.2289 19.9133 28.4154 21.2647C29.635 22.6161 30.2447 24.4454 30.2447 26.7526C30.2447 28.7302 31.3654 30.9385 30.2447 32.5865C29.157 34.2016 25.8281 35.0915 23.6197 36.0473C21.4114 37.0032 18.7746 40.3116 15.6104 40.3116Z" fill="#0E1E3E"/>
<path d="M51.8351 10.0541C49.0665 10.0541 46.9735 10.6638 45.5562 11.8834C44.1389 13.0699 43.4303 14.8663 43.4303 17.2724V19.3983H60.1809L56.0608 25.3188L43.4303 25.8256V36.7066L35.4209 38.4328V17.3218C35.4209 12.8722 36.8052 9.41135 39.5739 6.93933C42.3755 4.46732 51.8681 1.6863 56.878 1.6863C58.8556 1.6863 55.1311 3.44555 56.878 3.87403C58.6249 4.26956 58.8954 6.14829 60.1809 6.93933L58.9545 11.9823C56.9769 10.6968 54.6038 10.0541 51.8351 10.0541Z" fill="#0E1E3E"/>
<path d="M65.5616 2.47734L64.8159 0.688477L72.541 5.39432L73.571 13.0164V30.3617L89.5361 31.0415L90.9245 36.8878H65.5616V11.8834V2.47734Z" fill="#0E1E3E"/>
</g>
</svg>
