<svg width="25" height="24" viewBox="0 0 25 24" fill="none" xmlns="http://www.w3.org/2000/svg">
<g id="star-benefit">
<path id="Vector" d="M18.9832 16.7671C17.6164 17.0953 16.1895 17.0794 14.8303 16.7208C13.4712 16.3622 12.2221 15.6721 11.1951 14.7124C10.168 13.7526 9.39506 12.5531 8.94535 11.2213C8.49564 9.88951 8.38325 8.46696 8.61823 7.08105C8.58303 7.11615 8.54526 7.14858 8.50523 7.17805C8.22523 7.39105 7.87523 7.47005 7.17523 7.62805L6.54023 7.77205C4.08023 8.32905 2.85023 8.60706 2.55723 9.54806C2.26524 10.4881 3.10324 11.4691 4.78024 13.4301L5.21424 13.9371C5.69023 14.4941 5.92923 14.7731 6.03623 15.1171C6.14323 15.4621 6.10723 15.8341 6.03523 16.5771L5.96923 17.2541C5.71623 19.8711 5.58923 21.1791 6.35523 21.7601C7.12123 22.3411 8.27323 21.8121 10.5752 20.7511L11.1722 20.4771C11.8262 20.1751 12.1532 20.0251 12.5002 20.0251C12.8472 20.0251 13.1742 20.1751 13.8292 20.4771L14.4242 20.7511C16.7272 21.8111 17.8792 22.3411 18.6442 21.7611C19.4112 21.1791 19.2842 19.8711 19.0312 17.2541L18.9832 16.7671Z" fill="#223F78"/>
<path id="Vector_2" opacity="0.5" d="M9.65319 5.408L9.32519 5.996C8.96519 6.642 8.78519 6.965 8.50519 7.178C8.54519 7.148 8.58285 7.11567 8.61819 7.081C8.38314 8.46701 8.49553 9.88967 8.94528 11.2216C9.39504 12.5535 10.1681 13.7531 11.1953 14.7128C12.2225 15.6726 13.4716 16.3627 14.831 16.7212C16.1903 17.0797 17.6173 17.0954 18.9842 16.767L18.9642 16.577C18.8932 15.834 18.8572 15.462 18.9642 15.117C19.0712 14.773 19.3092 14.494 19.7862 13.937L20.2202 13.43C21.8972 11.47 22.7352 10.489 22.4422 9.548C22.1502 8.607 20.9202 8.328 18.4602 7.772L17.8242 7.628C17.1252 7.47 16.7752 7.391 16.4942 7.178C16.2142 6.965 16.0342 6.642 15.6742 5.996L15.3472 5.408C14.0802 3.136 13.4472 2 12.5002 2C11.5532 2 10.9202 3.136 9.65319 5.408Z" fill="#223F78"/>
</g>
</svg>
