<svg width="38" height="39" viewBox="0 0 38 39" fill="none" xmlns="http://www.w3.org/2000/svg">
<g id="Vector">
<path id="Vector_2" d="M16.4801 38.0402V27.7402H20.6002V38.0402H16.4801ZM33.1147 32.8387L25.8017 25.5771L28.7372 22.6416L35.9988 29.9547L33.1147 32.8387ZM3.96553 32.8387L1.08151 29.9547L8.34306 22.6416L11.2786 25.5771L3.96553 32.8387ZM10.5061 11.26L11.1241 13.3201H25.9562L26.5742 11.26H10.5061ZM11.1241 17.4401C10.2314 17.4401 9.42457 17.1743 8.70356 16.6429C7.98256 16.1114 7.48472 15.4158 7.21005 14.5561L6.18005 11.26H4.12003C2.98702 11.26 2.01744 10.857 1.21129 10.0508C0.405136 9.24466 0.00137334 8.27439 0 7.14001V0.959961H37.0803V7.14001C37.0803 8.27302 36.6772 9.24328 35.871 10.0508C35.0649 10.8583 34.0946 11.2614 32.9602 11.26H30.9002L29.5612 14.7621C29.2522 15.5517 28.7544 16.1958 28.0677 16.6944C27.381 17.1929 26.6085 17.4415 25.7502 17.4401H11.1241Z" fill="#B71111"/>
</g>
</svg>
